<?xml version="1.0"?>
<svg xmlns="http://www.w3.org/2000/svg" xmlns:xlink="http://www.w3.org/1999/xlink" xmlns:svgjs="http://svgjs.com/svgjs" version="1.1" width="512" height="512" x="0" y="0" viewBox="0 0 478 478" style="enable-background:new 0 0 512 512" xml:space="preserve" class=""><g>
<g xmlns="http://www.w3.org/2000/svg">
	<g>
		<path d="M119.5,187.75H17.1c-9.4,0-17,7.6-17.1,17.1v256c0,9.5,7.7,17.1,17.1,17.1h102.4c9.5,0,17.1-7.7,17.1-17.1v-256    C136.6,195.35,128.9,187.75,119.5,187.75z" fill="#ffffff" data-original="#000000" style="" class=""/>
	</g>
</g>
<g xmlns="http://www.w3.org/2000/svg">
	<g>
		<path d="M290.2,0.05H187.8c-9.4,0-17.1,7.6-17.1,17v443.8c0,9.5,7.7,17.1,17.1,17.1h102.4c9.5,0,17.1-7.7,17.1-17.1V17.15    C307.3,7.65,299.6,0.05,290.2,0.05z" fill="#ffffff" data-original="#000000" style="" class=""/>
	</g>
</g>
<g xmlns="http://www.w3.org/2000/svg">
	<g>
		<path d="M460.9,136.55H358.5c-9.5,0-17.1,7.6-17.1,17.1v307.2c0,9.5,7.7,17.1,17.1,17.1h102.4c9.5,0,17.1-7.7,17.1-17.1v-307.2    C478,144.15,470.3,136.55,460.9,136.55z" fill="#ffffff" data-original="#000000" style="" class=""/>
	</g>
</g>
<g xmlns="http://www.w3.org/2000/svg">
</g>
<g xmlns="http://www.w3.org/2000/svg">
</g>
<g xmlns="http://www.w3.org/2000/svg">
</g>
<g xmlns="http://www.w3.org/2000/svg">
</g>
<g xmlns="http://www.w3.org/2000/svg">
</g>
<g xmlns="http://www.w3.org/2000/svg">
</g>
<g xmlns="http://www.w3.org/2000/svg">
</g>
<g xmlns="http://www.w3.org/2000/svg">
</g>
<g xmlns="http://www.w3.org/2000/svg">
</g>
<g xmlns="http://www.w3.org/2000/svg">
</g>
<g xmlns="http://www.w3.org/2000/svg">
</g>
<g xmlns="http://www.w3.org/2000/svg">
</g>
<g xmlns="http://www.w3.org/2000/svg">
</g>
<g xmlns="http://www.w3.org/2000/svg">
</g>
<g xmlns="http://www.w3.org/2000/svg">
</g>
</g></svg>
