<?xml version="1.0"?>
<svg xmlns="http://www.w3.org/2000/svg" xmlns:xlink="http://www.w3.org/1999/xlink" xmlns:svgjs="http://svgjs.com/svgjs" version="1.1" width="512" height="512" x="0" y="0" viewBox="0 0 191.146 191.146" style="enable-background:new 0 0 512 512" xml:space="preserve" class=""><g>
<g xmlns="http://www.w3.org/2000/svg">
	<g>
		<path d="M86.589,41.858c-1.688-0.836-3.734-0.159-4.581,1.527L31.271,144.858c-0.843,1.688-0.159,3.738,1.527,4.581    c0.492,0.244,1.01,0.36,1.524,0.36c1.254,0,2.458-0.689,3.057-1.888L88.117,46.438C88.96,44.751,88.276,42.701,86.589,41.858z" fill="#ffffff" data-original="#000000" style="" class=""/>
	</g>
</g>
<g xmlns="http://www.w3.org/2000/svg">
	<g>
		<path d="M146.057,163.84H44.93c-1.886,0-3.413,1.527-3.413,3.413s1.527,3.413,3.413,3.413h101.127    c1.888,0,3.413-1.527,3.413-3.413S147.942,163.84,146.057,163.84z" fill="#ffffff" data-original="#000000" style="" class=""/>
	</g>
</g>
<g xmlns="http://www.w3.org/2000/svg">
	<g>
		<path d="M159.852,144.811L108.966,43.04c-0.847-1.688-2.895-2.36-4.581-1.527c-1.688,0.845-2.371,2.895-1.527,4.581l50.886,101.77    c0.601,1.196,1.804,1.886,3.057,1.886c0.514,0,1.033-0.116,1.524-0.358C160.012,148.547,160.695,146.497,159.852,144.811z" fill="#ffffff" data-original="#000000" style="" class=""/>
	</g>
</g>
<g xmlns="http://www.w3.org/2000/svg">
	<g>
		<path d="M116.053,0h-40.96c-1.886,0-3.413,1.527-3.413,3.413v40.96c0,1.886,1.527,3.413,3.413,3.413h40.96    c1.886,0,3.413-1.527,3.413-3.413V3.413C119.467,1.527,117.939,0,116.053,0z M112.64,40.96H78.507V6.827h34.133V40.96z" fill="#ffffff" data-original="#000000" style="" class=""/>
	</g>
</g>
<g xmlns="http://www.w3.org/2000/svg">
	<g>
		<path d="M44.373,143.36H3.413c-1.886,0-3.413,1.527-3.413,3.413v40.96c0,1.886,1.527,3.413,3.413,3.413h40.96    c1.886,0,3.413-1.528,3.413-3.413v-40.96C47.787,144.887,46.259,143.36,44.373,143.36z M40.96,184.32H6.827v-34.133H40.96V184.32z    " fill="#ffffff" data-original="#000000" style="" class=""/>
	</g>
</g>
<g xmlns="http://www.w3.org/2000/svg">
	<g>
		<path d="M187.733,143.36h-40.96c-1.886,0-3.413,1.527-3.413,3.413v40.96c0,1.886,1.527,3.413,3.413,3.413h40.96    c1.886,0,3.413-1.528,3.413-3.413v-40.96C191.147,144.887,189.619,143.36,187.733,143.36z M184.32,184.32h-34.133v-34.133h34.133    V184.32z" fill="#ffffff" data-original="#000000" style="" class=""/>
	</g>
</g>
<g xmlns="http://www.w3.org/2000/svg">
</g>
<g xmlns="http://www.w3.org/2000/svg">
</g>
<g xmlns="http://www.w3.org/2000/svg">
</g>
<g xmlns="http://www.w3.org/2000/svg">
</g>
<g xmlns="http://www.w3.org/2000/svg">
</g>
<g xmlns="http://www.w3.org/2000/svg">
</g>
<g xmlns="http://www.w3.org/2000/svg">
</g>
<g xmlns="http://www.w3.org/2000/svg">
</g>
<g xmlns="http://www.w3.org/2000/svg">
</g>
<g xmlns="http://www.w3.org/2000/svg">
</g>
<g xmlns="http://www.w3.org/2000/svg">
</g>
<g xmlns="http://www.w3.org/2000/svg">
</g>
<g xmlns="http://www.w3.org/2000/svg">
</g>
<g xmlns="http://www.w3.org/2000/svg">
</g>
<g xmlns="http://www.w3.org/2000/svg">
</g>
</g></svg>
