<?xml version="1.0"?>
<svg xmlns="http://www.w3.org/2000/svg" xmlns:xlink="http://www.w3.org/1999/xlink" xmlns:svgjs="http://svgjs.com/svgjs" version="1.1" width="512" height="512" x="0" y="0" viewBox="0 0 505.136 505.136" style="enable-background:new 0 0 512 512" xml:space="preserve"><g><g xmlns="http://www.w3.org/2000/svg"><path d="m312.029 123.191h-118.943c-22.299.027-40.37 18.098-40.397 40.397v146.748c0 7.859 6.371 14.229 14.229 14.229 7.859 0 14.229-6.371 14.229-14.229v-120.182c0-4.365 3.539-7.904 7.904-7.904s7.904 3.539 7.904 7.904v287.583c.455 13.163 11.495 23.465 24.658 23.011 12.525-.433 22.578-10.486 23.011-23.011v-164.242c0-4.365 3.539-7.904 7.904-7.904s7.904 3.539 7.904 7.904v164.243c.455 13.163 11.495 23.465 24.658 23.011 12.525-.433 22.578-10.486 23.011-23.011v-287.584c0-4.365 3.539-7.904 7.904-7.904s7.904 3.539 7.904 7.904v120.181c0 7.859 6.371 14.229 14.229 14.229 7.859 0 14.229-6.371 14.229-14.229v-146.74c-.021-22.28-18.058-40.345-40.338-40.404z" fill="#ffffff" data-original="#000000" style=""/><path d="m284.303 505.136c-15.125-.016-27.383-12.273-27.399-27.399v-164.242c0-2.403-1.948-4.351-4.351-4.351s-4.351 1.948-4.351 4.351v164.243c-.345 15.128-12.888 27.112-28.016 26.767-14.643-.334-26.434-12.125-26.767-26.767v-287.584c0-2.401-1.946-4.347-4.347-4.347s-4.347 1.946-4.347 4.347v120.181c0 9.823-7.963 17.787-17.787 17.787s-17.787-7.963-17.787-17.787v-146.74c.027-24.264 19.691-43.927 43.955-43.955h118.922c24.264.027 43.927 19.691 43.955 43.955v146.741c0 9.823-7.963 17.787-17.787 17.787s-17.787-7.963-17.787-17.787v-120.182c0-2.401-1.946-4.347-4.347-4.347s-4.347 1.946-4.347 4.347v287.583c-.018 15.13-12.282 27.387-27.412 27.399zm-31.746-203.103c6.327.008 11.454 5.135 11.462 11.462v164.243c.297 11.199 9.615 20.036 20.814 19.74 10.781-.286 19.454-8.958 19.74-19.74v-287.584c0-6.33 5.132-11.462 11.462-11.462s11.462 5.132 11.462 11.462v120.181c0 5.894 4.778 10.672 10.672 10.672s10.672-4.778 10.672-10.672v-146.74c-.024-20.336-16.504-36.816-36.84-36.84h-118.915c-20.336.024-36.816 16.504-36.84 36.84v146.741c0 5.894 4.778 10.672 10.672 10.672s10.672-4.778 10.672-10.672v-120.182c0-6.33 5.132-11.462 11.462-11.462s11.462 5.132 11.462 11.462v287.583c.297 11.199 9.615 20.036 20.814 19.74 10.781-.286 19.454-8.958 19.74-19.74v-164.242c.007-6.338 5.151-11.47 11.489-11.462z" fill="#ffffff" data-original="#000000" style=""/><circle cx="252.557" cy="49.902" r="46.352" fill="#ffffff" data-original="#000000" style=""/><path d="m252.557 99.819c-27.564 0-49.91-22.345-49.91-49.91 0-27.564 22.345-49.91 49.91-49.91 27.562 0 49.906 22.341 49.91 49.902-.027 27.556-22.355 49.887-49.91 49.918zm0-92.711c-23.635 0-42.795 19.16-42.795 42.795s19.16 42.795 42.795 42.795 42.795-19.16 42.795-42.795c-.027-23.624-19.171-42.768-42.795-42.795z" fill="#ffffff" data-original="#000000" style=""/></g></g></svg>
